<svg width="152" height="238" viewBox="0 0 152 238" fill="none" xmlns="http://www.w3.org/2000/svg">
<circle cx="140.5" cy="97.5" r="11.5" fill="#FFE871"/>
<circle cx="140.5" cy="54.5" r="11.5" fill="#FFE871"/>
<circle cx="140.5" cy="11.5" r="11.5" fill="#FFE871"/>
<circle cx="54.5" cy="97.5" r="11.5" fill="#FFE871"/>
<circle cx="54.5" cy="54.5" r="11.5" fill="#FFE871"/>
<circle cx="54.5" cy="183.5" r="11.5" fill="#FFE871"/>
<circle cx="140.5" cy="183.5" r="11.5" fill="#FFE871"/>
<circle cx="140.5" cy="140.5" r="11.5" fill="#FFE871"/>
<circle cx="54.5" cy="140.5" r="11.5" fill="#FFE871"/>
<circle cx="54.5" cy="226.5" r="11.5" fill="#FFE871"/>
<circle cx="140.5" cy="226.5" r="11.5" fill="#FFE871"/>
<circle cx="97.5" cy="97.5" r="11.5" fill="#FFE871"/>
<circle cx="97.5" cy="54.5" r="11.5" fill="#FFE871"/>
<circle cx="97.5" cy="11.5" r="11.5" fill="#FFE871"/>
<circle cx="11.5" cy="97.5" r="11.5" fill="#FFE871"/>
<circle cx="11.5" cy="183.5" r="11.5" fill="#FFE871"/>
<circle cx="97.5" cy="183.5" r="11.5" fill="#FFE871"/>
<circle cx="97.5" cy="140.5" r="11.5" fill="#FFE871"/>
<circle cx="11.5" cy="140.5" r="11.5" fill="#FFE871"/>
<circle cx="11.5" cy="226.5" r="11.5" fill="#FFE871"/>
<circle cx="97.5" cy="226.5" r="11.5" fill="#FFE871"/>
</svg>
