<svg width="20" height="15" viewBox="0 0 20 15" fill="none" xmlns="http://www.w3.org/2000/svg">
<path d="M15.9618 0.659093L7.38109 9.24795L4.07039 5.91261C3.61726 5.47527 3.01233 5.23089 2.38286 5.23089C1.75339 5.23089 1.14846 5.47527 0.695332 5.91261C0.249941 6.36175 -1.79428e-10 6.96892 -1.95721e-10 7.60175C-2.12015e-10 8.23458 0.249941 8.84176 0.695332 9.29089L5.70072 14.3011C6.1485 14.7486 6.75544 15 7.38825 15C8.02105 15 8.62799 14.7486 9.07577 14.3011L19.3082 4.03738C19.7514 3.58854 20 2.9829 20 2.35181C20 1.72073 19.7514 1.11508 19.3082 0.66625C18.8558 0.239559 18.258 0.0013351 17.6364 5.59524e-06C17.0148 -0.00132391 16.416 0.234341 15.9618 0.659093V0.659093Z" fill="#9299A2"/>
</svg>
