<svg width="15" height="17" viewBox="0 0 15 17" fill="none" xmlns="http://www.w3.org/2000/svg">
<path d="M3.91026 0.629935C3.90727 0.546471 3.92181 0.463296 3.95297 0.385588C3.98413 0.30788 4.03124 0.237302 4.09137 0.178248C4.1515 0.119193 4.22336 0.0729248 4.30249 0.0423238C4.38161 0.0117228 4.4663 -0.00255632 4.55128 0.000375003H10.7051C10.8751 0.000375003 11.0382 0.0667034 11.1584 0.184769C11.2786 0.302834 11.3462 0.462965 11.3462 0.629935V2.77044H15V4.02956H13.8248L13.312 16.4109C13.3092 16.4908 13.2904 16.5695 13.2567 16.6423C13.223 16.7151 13.175 16.7806 13.1155 16.8352C13.0559 16.8898 12.986 16.9323 12.9098 16.9603C12.8335 16.9883 12.7523 17.0013 12.6709 16.9985H2.58547C2.50338 17.0043 2.42097 16.9934 2.34337 16.9664C2.26578 16.9395 2.19467 16.8971 2.13451 16.842C2.07435 16.7868 2.02641 16.7201 1.99371 16.6459C1.961 16.5717 1.94423 16.4917 1.94444 16.4109L1.43162 4.02956H5.00093e-07V2.77044H3.91026V0.629935ZM5.19231 2.77044H10.0641V1.2595H5.19231V2.77044Z" fill="#333333"/>
</svg>
