<svg width="21" height="23" viewBox="0 0 21 23" fill="none" xmlns="http://www.w3.org/2000/svg">
<path d="M3.72475 21.9959L15.9147 22.0025C16.9025 22.003 17.8501 21.6111 18.549 20.913C19.2479 20.2149 19.6409 19.2677 19.6414 18.2798L19.6444 12.8621L17.6127 12.861L17.6098 18.2787C17.6095 18.7277 17.4309 19.1583 17.1132 19.4756C16.7956 19.793 16.3648 19.9711 15.9158 19.9708L3.72586 19.9642C3.27683 19.964 2.8463 19.7854 2.52896 19.4677C2.21163 19.15 2.03349 18.7193 2.03373 18.2702L2.04037 6.0803C2.04061 5.63128 2.21922 5.20074 2.5369 4.88341C2.85459 4.56607 3.28532 4.38793 3.73434 4.38818L9.15209 4.39113L9.1532 2.35947L3.73545 2.35652C2.74759 2.35598 1.79999 2.74789 1.10109 3.44603C0.40219 4.14416 0.00925169 5.09134 0.00871371 6.0792L0.00207505 18.2691C0.00153706 19.257 0.393444 20.2046 1.09158 20.9035C1.78972 21.6024 2.7369 21.9953 3.72475 21.9959V21.9959Z" fill="#9299A2"/>
<path d="M16.6939 1.00638C16.1832 1.00459 15.6771 1.10409 15.2051 1.29912C14.733 1.49415 14.3043 1.78084 13.9438 2.14261L6.8901 9.19201C6.2899 9.7877 5.81391 10.4966 5.48972 11.2776C5.16554 12.0587 4.99962 12.8963 5.00157 13.7419L5.00003 16.576L7.83419 16.5776C8.67925 16.58 9.51639 16.4148 10.2972 16.0915C11.0779 15.7682 11.7868 15.2932 12.3827 14.694L19.4432 7.64801C19.9872 7.104 20.3577 6.41093 20.5078 5.65641C20.658 4.90188 20.5811 4.11977 20.2868 3.40895C19.9926 2.69812 19.4942 2.09048 18.8547 1.66284C18.2152 1.2352 17.4632 1.00675 16.6939 1.00638V1.00638ZM18.0049 6.20814L10.9512 13.2575C10.5429 13.6677 10.0572 13.9928 9.52236 14.214C8.9875 14.4351 8.41407 14.548 7.83529 14.5459L7.03279 14.5455L7.03323 13.743C7.03227 13.1648 7.14594 12.5921 7.36767 12.0581C7.5894 11.5241 7.91479 11.0394 8.32502 10.6319L15.3821 3.58249C15.7344 3.25256 16.2012 3.07259 16.6838 3.08063C17.1664 3.08867 17.6269 3.2841 17.968 3.62557C18.3091 3.96705 18.504 4.4278 18.5115 4.9104C18.5191 5.39299 18.3386 5.85959 18.0083 6.21152L18.0049 6.20814Z" fill="#9299A2"/>
</svg>
