<svg width="16" height="16" viewBox="0 0 16 16" fill="none" xmlns="http://www.w3.org/2000/svg">
<path fill-rule="evenodd" clip-rule="evenodd" d="M0.693128 11.1395C-0.231042 12.0637 -0.231043 13.562 0.693127 14.4862C1.6173 15.4104 3.11567 15.4104 4.03984 14.4862L7.62745 10.8986L11.2151 14.4862C12.1392 15.4104 13.6376 15.4104 14.5618 14.4862C15.4859 13.562 15.4859 12.0637 14.5618 11.1395L10.9742 7.55189L14.4862 4.03984C15.4104 3.11567 15.4104 1.6173 14.4862 0.693126C13.562 -0.231044 12.0637 -0.231041 11.1395 0.693128L7.62745 4.20517L4.11541 0.693138C3.19124 -0.231032 1.69287 -0.231032 0.7687 0.693137C-0.15547 1.61731 -0.155468 3.11568 0.768702 4.03985L4.28073 7.55189L0.693128 11.1395Z" fill="#333333"/>
</svg>
