<svg width="23" height="23" viewBox="0 0 23 23" fill="none" xmlns="http://www.w3.org/2000/svg">
<path fill-rule="evenodd" clip-rule="evenodd" d="M9.23423 19.0031C9.23423 20.31 10.2937 21.3696 11.6007 21.3696C12.9077 21.3696 13.9672 20.31 13.9672 19.0031L13.9672 13.9294H19.0409C20.3478 13.9294 21.4073 12.8699 21.4073 11.5629C21.4073 10.256 20.3478 9.19646 19.0409 9.19646L13.9672 9.19646L13.9672 4.22968C13.9672 2.92271 12.9077 1.8632 11.6007 1.8632C10.2937 1.8632 9.23423 2.92271 9.23423 4.22969L9.23423 9.19646L4.26747 9.19646C2.9605 9.19646 1.90098 10.256 1.90098 11.5629C1.90098 12.8699 2.9605 13.9294 4.26747 13.9294L9.23423 13.9294L9.23423 19.0031Z" fill="#333333"/>
</svg>
