<svg width="30" height="22" viewBox="0 0 30 22" fill="none" xmlns="http://www.w3.org/2000/svg">
<path d="M9.78175 10.0229C12.2838 10.0229 14.312 7.99462 14.312 5.49261C14.312 2.9906 12.2838 0.962326 9.78175 0.962326C7.27974 0.962326 5.25146 2.9906 5.25146 5.49261C5.25146 7.99462 7.27974 10.0229 9.78175 10.0229Z" fill="#9299A2"/>
<path d="M14.0368 5.4926C14.0271 7.25222 12.9156 8.88545 11.2499 9.48819C9.55188 10.1039 7.63671 9.57569 6.48632 8.18873C5.35213 6.82122 5.22251 4.81532 6.13634 3.29875C7.05342 1.77893 8.87784 0.965555 10.6213 1.32202C12.3582 1.67848 13.7127 3.09783 13.9882 4.85097C14.0238 5.06161 14.0368 5.27872 14.0368 5.4926C14.04 5.84582 14.5909 5.84906 14.5877 5.4926C14.578 3.48346 13.3044 1.66875 11.4184 0.972036C9.5454 0.2818 7.35155 0.881301 6.08449 2.4238C4.80448 3.9825 4.61653 6.23144 5.65998 7.96838C6.70668 9.70207 8.76443 10.5965 10.7444 10.2011C12.6693 9.81873 14.2247 8.20169 14.5229 6.26061C14.5618 6.0046 14.5844 5.7486 14.5844 5.4926C14.5909 5.13938 14.04 5.13938 14.0368 5.4926Z" fill="#9299A2"/>
<path d="M18.0999 21.0828H1.48238C0.80187 21.0828 0.250977 20.532 0.250977 19.8514V19.0283C0.250977 14.874 3.6179 11.507 7.77228 11.507H11.81C15.9644 11.507 19.3313 14.874 19.3313 19.0283V19.8514C19.3313 20.532 18.7804 21.0828 18.0999 21.0828Z" fill="#9299A2"/>
<path d="M18.1001 20.8301C17.4746 20.8301 16.8492 20.8301 16.2238 20.8301C14.7591 20.8301 13.2943 20.8301 11.8264 20.8301C10.1218 20.8301 8.42056 20.8301 6.71603 20.8301C5.37769 20.8301 4.0361 20.8301 2.69775 20.8301C2.35102 20.8301 2.00428 20.8301 1.66078 20.8301C1.60245 20.8301 1.54412 20.8301 1.48579 20.8301C1.03535 20.8236 0.643248 20.5287 0.529829 20.088C0.490943 19.9325 0.500664 19.7672 0.500664 19.6052C0.500664 19.4237 0.500664 19.2422 0.500664 19.0608C0.500664 18.5228 0.552513 17.9914 0.665932 17.4664C0.912214 16.3517 1.41774 15.2953 2.14362 14.4171C3.53706 12.7287 5.61749 11.7566 7.80485 11.7533C9.11079 11.7533 10.42 11.7533 11.7259 11.7533C13.8452 11.7533 15.8641 12.6283 17.2705 14.2226C18.0288 15.0814 18.5764 16.1216 18.8584 17.2331C19.0755 18.0918 19.0949 18.9668 19.082 19.8482C19.0722 20.3926 18.6412 20.8204 18.1001 20.8301C17.7793 20.8366 17.776 21.3356 18.1001 21.3292C18.7514 21.3162 19.338 20.8949 19.5227 20.263C19.6296 19.8968 19.581 19.4723 19.581 19.0932C19.581 17.9363 19.3444 16.8021 18.8616 15.7522C17.857 13.5745 15.822 11.9381 13.4791 11.4325C12.7272 11.2705 11.9722 11.2511 11.2107 11.2511C10.3811 11.2511 9.55475 11.2511 8.72517 11.2511C8.03817 11.2511 7.35442 11.2349 6.67066 11.3321C5.4911 11.4973 4.35043 11.9413 3.37179 12.6186C1.36589 14.0088 0.102077 16.2901 0.00810138 18.7302C-0.00486081 19.0964 0.00162026 19.4626 0.00162026 19.8255C0.00486081 20.3991 0.319194 20.9435 0.847403 21.1866C1.17794 21.3389 1.50847 21.3292 1.85845 21.3292C2.957 21.3292 4.05554 21.3292 5.15409 21.3292C6.85213 21.3292 8.54694 21.3292 10.245 21.3292C11.8944 21.3292 13.5439 21.3292 15.1933 21.3292C16.1201 21.3292 17.0437 21.3292 17.9704 21.3292C18.0126 21.3292 18.0579 21.3292 18.1001 21.3292C18.4241 21.3324 18.4241 20.8301 18.1001 20.8301Z" fill="#9299A2"/>
<path d="M22.3066 10.4668C24.1786 10.4668 25.6962 8.94922 25.6962 7.07719C25.6962 5.20516 24.1786 3.68758 22.3066 3.68758C20.4346 3.68758 18.917 5.20516 18.917 7.07719C18.917 8.94922 20.4346 10.4668 22.3066 10.4668Z" fill="#9299A2"/>
<path d="M25.4886 7.07724C25.4789 8.40263 24.6396 9.63079 23.379 10.0747C22.1152 10.5187 20.6958 10.1234 19.8403 9.09286C18.9913 8.06885 18.8941 6.56848 19.5779 5.43428C20.2616 4.30333 21.6194 3.69411 22.9156 3.95335C24.403 4.245 25.4789 5.56715 25.4886 7.07724C25.4919 7.34297 25.9034 7.34297 25.9002 7.07724C25.8904 5.58011 24.9507 4.2288 23.5475 3.70383C22.1411 3.17562 20.4852 3.62282 19.5325 4.78617C18.5765 5.95277 18.4372 7.63137 19.2182 8.93083C19.9959 10.2206 21.5254 10.8914 23.0031 10.6062C24.4549 10.3275 25.6312 9.10906 25.8516 7.64758C25.8807 7.45963 25.8969 7.26843 25.8969 7.07724C25.9034 6.81152 25.4919 6.81152 25.4886 7.07724Z" fill="#9299A2"/>
<path d="M29.7792 19.0121V19.7931C29.7792 20.438 29.3028 20.9597 28.7292 20.9597H21.0945V17.8455C21.0945 15.3536 19.7205 13.2148 17.7729 12.3269C18.4599 12.0417 19.202 11.8862 19.9765 11.8862H23.3985C26.9178 11.8862 29.7792 15.0814 29.7792 19.0121Z" fill="#9299A2"/>
<path d="M29.5457 19.0122C29.5457 19.1677 29.5457 19.3233 29.5457 19.482C29.5457 19.6538 29.5619 19.8385 29.5262 20.007C29.4387 20.4088 29.1309 20.7297 28.7064 20.7361C28.2689 20.7426 27.8347 20.7361 27.3972 20.7361C25.7315 20.7361 24.0691 20.7361 22.4035 20.7361C21.9628 20.7361 21.5253 20.7361 21.0846 20.7361C21.1591 20.8107 21.2337 20.8852 21.3082 20.9597C21.3082 20.0329 21.3082 19.1061 21.3082 18.1826C21.3082 17.6025 21.2823 17.029 21.1656 16.4554C20.9841 15.5675 20.618 14.7087 20.0833 13.9764C19.5129 13.1921 18.7644 12.544 17.8797 12.139C17.8603 12.2751 17.844 12.4112 17.8246 12.5473C18.5116 12.2653 19.2375 12.1163 19.9828 12.1163C20.2194 12.1163 20.4559 12.1163 20.6925 12.1163C21.5059 12.1163 22.3192 12.1163 23.1326 12.1163C24.027 12.1163 24.8955 12.2427 25.7153 12.625C26.788 13.1209 27.6953 13.9342 28.3434 14.9226C29.1438 16.1346 29.5424 17.5669 29.5457 19.0122C29.5457 19.3006 29.9961 19.3006 29.9929 19.0122C29.9864 16.4132 28.7161 13.8014 26.4218 12.4825C25.482 11.9413 24.4224 11.6691 23.3368 11.6658C22.572 11.6658 21.804 11.6658 21.0392 11.6658C20.699 11.6658 20.3555 11.6658 20.0152 11.6658C19.2245 11.6658 18.4436 11.8149 17.7079 12.113C17.5524 12.1779 17.4584 12.4339 17.6529 12.5214C19.2116 13.2408 20.2907 14.7055 20.686 16.3582C20.9453 17.4373 20.8578 18.5877 20.8578 19.6894C20.8578 20.1107 20.8578 20.5352 20.8578 20.9565C20.8578 21.0764 20.9615 21.1801 21.0814 21.1801C22.2901 21.1801 23.4988 21.1801 24.7075 21.1801C26.0362 21.1801 27.368 21.1898 28.6966 21.1801C29.2573 21.1769 29.7142 20.8107 29.9021 20.2922C30.0447 19.8968 29.9896 19.4237 29.9896 19.0089C29.9961 18.7238 29.5457 18.7238 29.5457 19.0122Z" fill="#9299A2"/>
</svg>
