<svg width="28" height="28" viewBox="0 0 28 28" fill="none" xmlns="http://www.w3.org/2000/svg">
<path d="M14 0C13.5167 0 13.125 0.391751 13.125 0.875V4.375C13.125 4.85825 13.5167 5.25 14 5.25C14.4833 5.25 14.875 4.85825 14.875 4.375V0.875C14.875 0.391751 14.4833 0 14 0Z" fill="#9299A2"/>
<path fill-rule="evenodd" clip-rule="evenodd" d="M6.125 14C6.125 9.65072 9.65072 6.125 14 6.125C18.3493 6.125 21.875 9.65072 21.875 14C21.875 18.3493 18.3493 21.875 14 21.875C9.65072 21.875 6.125 18.3493 6.125 14ZM14 7.875C10.6173 7.875 7.875 10.6173 7.875 14C7.875 17.3827 10.6173 20.125 14 20.125C17.3827 20.125 20.125 17.3827 20.125 14C20.125 10.6173 17.3827 7.875 14 7.875Z" fill="#9299A2"/>
<path d="M27.125 13.125C27.6083 13.125 28 13.5167 28 14C28 14.4833 27.6083 14.875 27.125 14.875H23.625C23.1417 14.875 22.75 14.4833 22.75 14C22.75 13.5167 23.1417 13.125 23.625 13.125H27.125Z" fill="#9299A2"/>
<path d="M4.375 13.125C4.85825 13.125 5.25 13.5167 5.25 14C5.25 14.4833 4.85825 14.875 4.375 14.875H0.875C0.391751 14.875 0 14.4833 0 14C0 13.5167 0.391751 13.125 0.875 13.125H4.375Z" fill="#9299A2"/>
<path d="M23.8995 4.10052C23.5578 3.75881 23.0038 3.75881 22.6621 4.10052L20.1872 6.57539C19.8455 6.9171 19.8455 7.47112 20.1872 7.81283C20.5289 8.15454 21.083 8.15454 21.4247 7.81283L23.8995 5.33796C24.2412 4.99624 24.2412 4.44223 23.8995 4.10052Z" fill="#9299A2"/>
<path d="M7.81283 20.1872C7.47112 19.8454 6.9171 19.8454 6.5754 20.1872L4.10052 22.6621C3.75881 23.0037 3.75881 23.5578 4.10052 23.8995C4.44223 24.2412 4.99625 24.2412 5.33796 23.8995L7.81283 21.4246C8.15454 21.0829 8.15454 20.5289 7.81283 20.1872Z" fill="#9299A2"/>
<path d="M4.10052 4.10052C3.75881 4.44223 3.75881 4.99624 4.10052 5.33796L6.57539 7.81283C6.9171 8.15454 7.47112 8.15454 7.81283 7.81283C8.15454 7.47112 8.15454 6.9171 7.81283 6.57539L5.33796 4.10052C4.99624 3.75881 4.44223 3.75881 4.10052 4.10052Z" fill="#9299A2"/>
<path d="M20.1872 20.1872C19.8455 20.5289 19.8455 21.0829 20.1872 21.4246L22.6621 23.8995C23.0038 24.2412 23.5578 24.2412 23.8995 23.8995C24.2412 23.5578 24.2412 23.0037 23.8995 22.6621L21.4247 20.1872C21.0829 19.8454 20.5289 19.8454 20.1872 20.1872Z" fill="#9299A2"/>
<path d="M13.125 23.625C13.125 23.1417 13.5167 22.75 14 22.75C14.4833 22.75 14.875 23.1417 14.875 23.625V27.125C14.875 27.6083 14.4833 28 14 28C13.5167 28 13.125 27.6083 13.125 27.125V23.625Z" fill="#9299A2"/>
</svg>
