<svg width="22" height="22" viewBox="0 0 22 22" fill="none" xmlns="http://www.w3.org/2000/svg">
<path d="M21.2667 0H18.3334C17.9284 0 17.6 0.328324 17.6 0.733333V21.2667C17.6 21.6717 17.9284 22 18.3334 22H21.2667C21.6717 22 22 21.6717 22 21.2667V0.733333C22 0.328324 21.6717 0 21.2667 0Z" fill="#9299A2"/>
<path d="M15.3999 4.40001H12.4666C12.0616 4.40001 11.7333 4.72833 11.7333 5.13334V21.2667C11.7333 21.6717 12.0616 22 12.4666 22H15.3999C15.805 22 16.1333 21.6717 16.1333 21.2667V5.13334C16.1333 4.72833 15.805 4.40001 15.3999 4.40001Z" fill="#9299A2"/>
<path d="M9.5333 8.79999H6.59997C6.19496 8.79999 5.86664 9.12831 5.86664 9.53332V21.2667C5.86664 21.6717 6.19496 22 6.59997 22H9.5333C9.93831 22 10.2666 21.6717 10.2666 21.2667V9.53332C10.2666 9.12831 9.93831 8.79999 9.5333 8.79999Z" fill="#9299A2"/>
<path d="M3.66667 13.2H0.733333C0.328324 13.2 0 13.5283 0 13.9333V21.2667C0 21.6717 0.328324 22 0.733333 22H3.66667C4.07168 22 4.4 21.6717 4.4 21.2667V13.9333C4.4 13.5283 4.07168 13.2 3.66667 13.2Z" fill="#9299A2"/>
</svg>
